<?xml version="1.0" encoding="UTF-8" standalone="no"?>
<!-- Created with Inkscape (http://www.inkscape.org/) -->

<svg
   xmlns:dc="http://purl.org/dc/elements/1.1/"
   xmlns:cc="http://creativecommons.org/ns#"
   xmlns:rdf="http://www.w3.org/1999/02/22-rdf-syntax-ns#"
   xmlns:svg="http://www.w3.org/2000/svg"
   xmlns="http://www.w3.org/2000/svg"
   xmlns:sodipodi="http://sodipodi.sourceforge.net/DTD/sodipodi-0.dtd"
   xmlns:inkscape="http://www.inkscape.org/namespaces/inkscape"
   width="45"
   height="45"
   id="svg2"
   version="1.1"
   inkscape:version="0.48.2 r9819"
   sodipodi:docname="button2.png">
  <defs
     id="defs4" />
  <sodipodi:namedview
     id="base"
     pagecolor="#ffffff"
     bordercolor="#666666"
     borderopacity="1.0"
     inkscape:pageopacity="0.0"
     inkscape:pageshadow="2"
     inkscape:zoom="7.9195959"
     inkscape:cx="3.7670661"
     inkscape:cy="34.313613"
     inkscape:document-units="px"
     inkscape:current-layer="layer1"
     showgrid="false"
     units="in"
     showguides="true"
     inkscape:guide-bbox="true"
     inkscape:window-width="1600"
     inkscape:window-height="838"
     inkscape:window-x="-8"
     inkscape:window-y="-8"
     inkscape:window-maximized="1">
    <sodipodi:guide
       orientation="0,1"
       position="217.1828,134.35029"
       id="guide3005" />
    <sodipodi:guide
       orientation="1,0"
       position="0.50507627,23.738585"
       id="guide3007" />
    <sodipodi:guide
       orientation="0,1"
       position="20.203051,0.50507627"
       id="guide3009" />
    <sodipodi:guide
       orientation="1,0"
       position="134.60283,66.41753"
       id="guide3011" />
    <sodipodi:guide
       orientation="1,0"
       position="44.446712,29.294424"
       id="guide4743" />
    <sodipodi:guide
       orientation="0,1"
       position="16.541248,44.572981"
       id="guide4745" />
    <sodipodi:guide
       orientation="1,0"
       position="22.349625,55.684659"
       id="guide5438" />
    <sodipodi:guide
       orientation="0,1"
       position="32.956227,22.475894"
       id="guide5440" />
  </sodipodi:namedview>
  <metadata
     id="metadata7">
    <rdf:RDF>
      <cc:Work
         rdf:about="">
        <dc:format>image/svg+xml</dc:format>
        <dc:type
           rdf:resource="http://purl.org/dc/dcmitype/StillImage" />
        <dc:title></dc:title>
      </cc:Work>
    </rdf:RDF>
  </metadata>
  <g
     inkscape:label="Layer 1"
     inkscape:groupmode="layer"
     id="layer1"
     transform="translate(0,-1007.3598)">
    <path
       sodipodi:type="arc"
       style="fill:#5683ff;fill-opacity:1;stroke:none;overflow:visible"
       id="path4684"
       sodipodi:cx="96.159782"
       sodipodi:cy="42.11882"
       sodipodi:rx="17.134605"
       sodipodi:ry="16.760078"
       d="m 113.29439,42.11882 c 0,9.256336 -7.67143,16.760079 -17.134608,16.760079 -9.463181,0 -17.134605,-7.503743 -17.134605,-16.760079 0,-9.256336 7.671424,-16.760078 17.134605,-16.760078 9.463178,0 17.134608,7.503742 17.134608,16.760078 z"
       transform="matrix(3.9929769,0,0,3.9929769,-135.31156,816.75259)" />
    <path
       sodipodi:type="arc"
       style="fill:#ff3737;fill-opacity:1;stroke:none;overflow:visible"
       id="path4684-1"
       sodipodi:cx="96.159782"
       sodipodi:cy="42.11882"
       sodipodi:rx="17.134605"
       sodipodi:ry="16.760078"
       d="m 113.29439,42.11882 a 17.134605,16.760078 0 1 1 -34.269213,0 17.134605,16.760078 0 1 1 34.269213,0 z"
       transform="matrix(1.2822484,0,0,1.314669,-100.82484,974.44847)" />
    <path
       inkscape:connector-curvature="0"
       d="m 18.389771,1030.8698 3.266815,-5.3534 c 0.0524,-0.087 0.122813,-0.1172 0.171546,-0.1284 0.04898,-0.01 0.125739,-0.01 0.20698,0.048 l 10.104054,7.0624 c 0.128565,0.09 0.194789,0.2738 0.157462,0.4373 -0.0079,0.038 -0.02315,0.076 -0.0429,0.1082 l -2.323178,3.8059 c -0.103166,0.1695 -0.359885,0.2405 -0.536033,0.1478 l -10.901335,-5.7554 c -0.182039,-0.096 -0.171618,-0.2592 -0.104099,-0.3728 z"
       id="path5400"
       style="fill:#ffffff" />
    <path
       inkscape:connector-curvature="0"
       d="m 14.242442,1020.5364 c 0.661441,-0.098 1.359885,0.025 1.977521,0.3977 l 0.530571,0.3255 c 0.391217,0.2381 0.840823,0.3284 1.261739,0.2624 0.980326,-0.7824 2.383027,-0.9144 3.502517,-0.2306 9.76e-4,0 0.06445,0.039 0.06938,0.042 0.39389,0.2405 0.718567,0.5588 0.961621,0.9277 0.469008,0.092 0.919134,0.2821 1.315687,0.5611 l 10.104902,7.0617 c 1.183304,0.8276 1.762005,2.3379 1.439479,3.7589 -0.0856,0.3762 -0.229884,0.7334 -0.430588,1.0632 l -2.324407,3.8088 c -0.990058,1.6166 -3.076381,2.1877 -4.746761,1.3021 l -10.900008,-5.7535 c -0.450033,-0.237 -0.828649,-0.5627 -1.124882,-0.9454 -0.439804,-0.053 -0.879326,-0.201 -1.29185,-0.4508 -1.103432,-0.6749 -1.662101,-1.9646 -1.407122,-3.2274 -0.132689,-0.4044 -0.41886,-0.7627 -0.808378,-1.0002 l -0.539615,-0.3287 c -0.599739,-0.3664 -1.032363,-0.9215 -1.251589,-1.5539 l -0.300905,-0.1828 c -1.1463345,-0.7012 -1.7398665,-2.1057 -1.4417965,-3.4169 -1.83e-4,-7e-4 -4.88e-4,0 -7.32e-4,0 l 0.281004,-1.2294 c 0.207254,-0.9001 0.799328,-1.6182 1.6267035,-1.9683 0.828379,-0.3507 1.757147,-0.2781 2.557102,0.2058 l 0.938834,0.5736 z m 3.87698,11.4138 10.900615,5.7538 c 0.552356,0.2929 1.268562,0.096 1.594154,-0.4366 l 2.32205,-3.8059 c 0.324889,-0.5325 0.173225,-1.2619 -0.337283,-1.6192 l -10.104249,-7.0624 c -0.511104,-0.3584 -1.195419,-0.2155 -1.520461,0.318 l -3.267611,5.3551 c -0.325206,0.5321 -0.138996,1.2062 0.412772,1.4971 z m -6.6714,-9.6903 -0.27974,1.2263 c -0.06912,0.3031 0.09116,0.6861 0.357566,0.8486 l 0.891311,0.5433 c 0.01702,0.01 0.03396,0.016 0.0515,0.024 l 1.174823,-1.9273 c -0.01525,-0.012 -0.02771,-0.024 -0.04468,-0.034 l -1.539312,-0.9401 c -0.267198,-0.1607 -0.541497,-0.046 -0.611284,0.259 z m 7.899975,1.3049 -0.03206,0.053 c -1.17882,0.4935 -2.598237,0.42 -3.808413,-0.3176 l -0.537288,-0.3293 c -0.266325,-0.161 -0.6172,-0.077 -0.780049,0.189 l -1.300097,2.132 c -0.162542,0.2662 -0.0781,0.617 0.185909,0.7798 l 0.538208,0.3281 c 1.210598,0.7373 1.923397,1.9682 2.024731,3.2398 l -0.03267,0.055 c -0.194607,0.3192 -0.09258,0.7398 0.22514,0.9358 l 0.0562,0.035 c 0.321095,0.1938 0.741422,0.093 0.935119,-0.226 l 3.740646,-6.1295 c 0.195285,-0.3193 0.09324,-0.7413 -0.225386,-0.9368 l -0.05583,-0.033 c -0.320458,-0.1957 -0.740523,-0.093 -0.936283,0.2263 z"
       id="path5402"
       style="fill:#ffffff" />
  </g>
</svg>
